inDegrees=yes
name=ik_S48_A10_T02
DataType=double
version=3
OpenSimVersion=4.3-2021-08-27-4bc7ad9
endheader
time	pelvis_tilt	pelvis_list	pelvis_rotation	pelvis_tx	pelvis_ty	pelvis_tz	hip_flexion_r	hip_adduction_r	hip_rotation_r	knee_angle_r	knee_angle_r_beta	ankle_angle_r	subtalar_angle_r	mtp_angle_r	hip_flexion_l	hip_adduction_l	hip_rotation_l	knee_angle_l	knee_angle_l_beta	ankle_angle_l	subtalar_angle_l	mtp_angle_l	lumbar_extension	lumbar_bending	lumbar_rotation	arm_flex_r	arm_add_r	arm_rot_r	elbow_flex_r	pro_sup_r	wrist_flex_r	wrist_dev_r	arm_flex_l	arm_add_l	arm_rot_l	elbow_flex_l	pro_sup_l	wrist_flex_l	wrist_dev_l
10.47999999999987	-0.02235739735563985	-0.5877585773008817	50.8331807412014	0	0.9399999999999999	0	45.05594990014579	-10.00000707663611	-10.00115507168052	54.9343183700241	0.9587847278957252	0	0	0	45.05594990014579	-10.00000707663611	-10.00115507168052	54.9343183700241	0.9587847278957252	0	0	0	-0.5059654778446518	0.03919854631204004	1.799434473702648	25.77683068732327	3.089050883721859	4.019804488812024	6.84699468590196	102.4619457893977	0	0	19.08842052939429	-1.401899419591064	1.127211842833197	9.411554725940491	84.0005298895144	0	0
10.49999999999986	0.004626017972360973	-0.5611346047113308	50.58757729440777	0	0.9399999999999999	0	45.05532550893839	-10.00000688787942	-10.00113232810733	54.93496492617829	0.9587960124294148	0	0	0	45.05532550893839	-10.00000688787942	-10.00113232810733	54.93496492617829	0.9587960124294148	0	0	0	-0.4752951608875319	0.04884166729009667	1.985333897417388	28.07146581912724	3.215286451538637	2.015124508672455	7.06658921384763	104.3015887706726	0	0	20.58599675915883	-2.354663430267625	2.13323236836438	11.06494286408948	82.08508112142886	0	0
10.51999999999986	0.1085517599506002	-0.4288480494906734	50.31641989160475	0	0.9399999999999999	0	45.05451298344166	-10.00000664121561	-10.00110260071695	54.93579304814322	0.9588104658843108	0	0	0	45.05451298344166	-10.00000664121561	-10.00110260071695	54.93579304814322	0.9588104658843108	0	0	0	-0.3115434487785313	0.0631452434611908	2.263815532367985	30.37469081435896	3.293447422670622	0.2764425204795816	7.306843961030189	105.7147190152742	0	0	20.32292541195251	-2.726727852473917	2.437040656402249	17.10344068055786	80.75282506697739	0	0
10.53999999999986	0.1452945888437764	-0.3689270013867124	50.58749682049002	0	0.9399999999999999	0	45.05389146270887	-10.00000645807838	-10.00108023383507	54.93643005567685	0.9588215837631329	0	0	0	45.05389146270887	-10.00000645807838	-10.00108023383507	54.93643005567685	0.9588215837631329	0	0	0	-0.240132649753914	0.07088880556735765	1.987800031981916	30.26093145187831	3.181715825252911	0.3488364806924281	10.599429274171	105.4435203088908	0	0	24.44112456943481	-4.763834329994639	1.67008160084483	15.11953794304873	81.11256797266158	0	0
10.55999999999986	0.2255564662931863	-0.2697551821293036	50.68697223894026	0	0.9399999999999999	0	45.05321796263666	-10.00000626694924	-10.00105652700951	54.93713144222203	0.9588338252676754	0	0	0	45.05321796263666	-10.00000626694924	-10.00105652700951	54.93713144222203	0.9588338252676754	0	0	0	-0.1137425812460233	0.07624740707369684	1.887448475665657	32.78156964044595	3.306076860586557	-0.7704384842382266	11.4823970786943	106.0464662784979	0	0	27.04203640349462	-6.107955863380712	0.4739098120359789	16.07132061619122	81.98637736340643	0	0
10.57999999999986	0.2861138019725367	-0.1736603384100525	50.75270173368224	0	0.9399999999999999	0	45.0525306807122	-10.00000607733045	-10.00103271581267	54.93785224045156	0.9588464055700232	0	0	0	45.0525306807122	-10.00000607733045	-10.00103271581267	54.93785224045156	0.9588464055700232	0	0	0	0.006573957789026019	0.07775269397832604	1.808800970746435	35.58285033025067	3.403696253968687	-1.753987253921481	12.44019107191689	106.0778847897592	0	0	29.63411527815247	-7.701091239186537	0.001098338918820686	17.51059937376325	81.41371475347636	0	0
10.59999999999986	0.3847292437418378	-0.01902612179365569	50.83965369738179	0	0.9399999999999999	0	45.0515672283938	-10.00000580401329	-10.0009987291972	54.93883527776197	0.9588635628077598	0	0	0	45.0515672283938	-10.00000580401329	-10.0009987291972	54.93883527776197	0.9588635628077598	0	0	0	0.1947723609902819	0.1030314218988084	1.733956441640053	38.38701993581627	3.508092108004835	-2.369092127697159	13.45027199957796	105.3958339583653	0	0	32.20436022676446	-9.729436765971895	0.4751715338104495	22.4301372941347	78.65878219019176	0	0
10.61999999999986	0.4672268603475794	0.1378124742123737	50.90286155108143	0	0.9399999999999999	0	45.05087351360853	-10.00000562097819	-10.00097527647146	54.9395656065182	0.958876309449178	0	0	0	45.05087351360853	-10.00000562097819	-10.00097527647146	54.9395656065182	0.958876309449178	0	0	0	0.3694016822549376	0.1440059702658819	1.692577318666387	41.24019094437087	3.581866761413277	-2.557970597462199	15.26040544384016	104.4547861202499	0	0	34.73242676733905	-11.49005853640208	1.374524802437203	23.2240469180322	76.77406178521289	0	0
10.63999999999986	0.5256484381236398	0.2210210577278222	50.96726080750076	0	0.9399999999999999	0	45.05002250428428	-10.00000540270699	-10.00094694827309	54.94046540856671	0.9588920139575408	0	0	0	45.05002250428428	-10.00000540270699	-10.00094694827309	54.94046540856671	0.9588920139575408	0	0	0	0.4833287109132997	0.1333051863494564	1.714490464967208	44.26033164019692	3.637765516492914	-2.981962571764873	17.43338243149763	103.6597753270584	0	0	37.59403437409394	-13.40742154135462	2.95590182176285	27.38465456153503	73.16421077093933	0	0
10.65999999999986	0.5344577193472655	0.281731182451108	50.92461902438325	0	0.9399999999999999	0	45.04913782449628	-10.0000051809056	-10.00091786501946	54.94140181263899	0.9589083572917311	0	0	0	45.04913782449628	-10.0000051809056	-10.00091786501946	54.94140181263899	0.9589083572917311	0	0	0	0.5396151887550744	0.1379314787401578	1.768777194313702	47.45257944410189	3.706053076475996	-3.567159739365582	20.27537902568903	102.494338118011	0	0	40.60706172852526	-15.23073016796655	4.460642666119396	32.15670856978991	68.97239563560213	0	0
10.67999999999986	0.6447475482391499	0.3951425364524216	51.04020594941179	0	0.9399999999999999	0	45.04756996375499	-10.00000478589959	-10.00086605033389	54.94302699927067	0.9589367221494133	0	0	0	45.04756996375499	-10.00000478589959	-10.00086605033389	54.94302699927067	0.9589367221494133	0	0	0	0.7068263281692317	0.09599985197021373	1.962832809599636	50.50152010580945	3.505750391063564	-4.77145579509394	23.54216358932594	101.3252551754507	0	0	43.64790218669602	-16.95774825622561	6.170043164531157	37.42273574469134	64.03845675745217	0	0
10.69999999999986	0.6293700266345068	0.4334963123665733	50.96285333726423	0	0.9399999999999999	0	45.04599494220779	-10.0000044089395	-10.00081544430429	54.94466866944691	0.9589653746992205	0	0	0	45.04599494220779	-10.0000044089395	-10.00081544430429	54.94466866944691	0.9589653746992205	0	0	0	0.7327359438939174	0.06619988179522772	2.085228776381047	53.94957019769025	3.27450602808365	-5.923463461619913	27.10390662247278	100.2071302169646	0	0	46.88437903028598	-19.01078288291472	7.824850958595575	43.44704391876736	58.11924719538784	0	0
10.71999999999986	0.6026949524272815	0.423684642013823	51.09705588716964	0	0.9399999999999999	0	45.04449822847256	-10.00000407275158	-10.00076905671128	54.94625217832335	0.9589930121428489	0	0	0	45.04449822847256	-10.00000407275158	-10.00076905671128	54.94625217832335	0.9589930121428489	0	0	0	0.745690473556909	0.08362144696412273	2.097347703251649	60.40811977765181	4.163289465446179	-6.489509832221768	34.97210365600444	96.49191739838299	0	0	50.31566837735777	-20.51698712089787	10.270860090896	49.43556847989436	51.94875384186246	0	0
10.73999999999986	0.543727867324436	0.3701828535754699	51.07175781057977	0	0.9399999999999999	0	45.04382523779471	-10.00000392895875	-10.00074880512778	54.94697439164017	0.9590056171431292	0	0	0	45.04382523779471	-10.00000392895875	-10.00074880512778	54.94697439164017	0.9590056171431292	0	0	0	0.6667239786635039	0.0753238147276464	2.293690298259403	62.70664513017112	4.994236890049057	-7.964059519695144	38.8523704044192	97.47972741854088	0	0	53.71157194593018	-20.16780198656186	11.96682360000264	50.18353689743498	49.19152972398165	0	0
10.75999999999986	0.5261065279683697	0.4074473442357839	51.01482496099997	0	0.9399999999999999	0	45.04317383272536	-10.00000379444477	-10.0007295571239	54.94767575187934	0.9590178581885452	0	0	0	45.04317383272536	-10.00000379444477	-10.0007295571239	54.94767575187934	0.9590178581885452	0	0	0	0.6676283203779068	0.1159385824039909	2.425579511024023	65.48718422381468	5.064051803135907	-6.470857346242166	36.17234029360054	96.04647154417262	0	0	56.47588248123075	-20.71601372361405	14.70164738186433	55.01008414255602	43.41460274460913	0	0
10.77999999999986	0.5630412964465361	0.6058916637318582	51.11144519222081	0	0.9399999999999999	0	45.04265177286072	-10.00000368763317	-10.00071422168917	54.94823843197073	0.9590276788087755	0	0	0	45.04265177286072	-10.00000368763317	-10.00071422168917	54.94823843197073	0.9590276788087755	0	0	0	0.8546585860980415	0.2110290144621208	2.416594381483006	68.02131465714513	4.7822959955521	-6.011797672928127	38.99551318808904	94.44279493665152	0	0	56.37908623234586	-21.10390755146179	14.27883796272854	59.81870116981308	41.37498709189453	0	0
10.79999999999986	0.656376289155217	0.6353150849541461	50.96636062023388	0	0.9399999999999999	0	45.04167708595593	-10.00000348379625	-10.00068514250365	54.94925874277399	0.959045486591686	0	0	0	45.04167708595593	-10.00000348379625	-10.00068514250365	54.94925874277399	0.959045486591686	0	0	0	0.8688293053202039	0.3426288209011601	2.681693178099722	70.6024209561849	4.494478202525684	-7.980231538659915	40.51846454080871	92.9424618999674	0	0	62.24029827791317	-24.80689886585121	21.70024590089486	65.05359420532227	31.80898520325599	0	0
10.81999999999986	0.6724915326680859	0.6458925101592851	51.23100451194964	0	0.9399999999999999	0	45.04120176011702	-10.00000339169608	-10.00067159171277	54.94977407652123	0.9590544808623219	0	0	0	45.04120176011702	-10.00000339169608	-10.00067159171277	54.94977407652123	0.9590544808623219	0	0	0	0.8937329551421367	0.3146817918474579	2.528742071568553	70.58479931225068	4.269054396025723	-8.133003321548948	42.88960091267194	88.43823026724759	0	0	65.33951329533139	-26.4535648668332	23.30548856791897	65.79903179706191	29.25691098392198	0	0
10.83999999999986	0.6874056332204606	0.6379559268272115	51.18381974747481	0	0.9399999999999999	0	45.04072269925088	-10.00000330051381	-10.00065807208776	54.95029512183808	0.9590635748186531	0	0	0	45.04072269925088	-10.00000330051381	-10.00065807208776	54.95029512183808	0.9590635748186531	0	0	0	0.8999457787080425	0.2959016217014417	2.623168567833265	72.99260491759156	4.230977601174954	-11.33367528768757	41.81239801818322	86.24510750147346	0	0	65.49513552087058	-26.60247646061178	23.04291345798033	66.17219764823061	31.2007769404056	0	0
10.85999999999986	0.7071087391519204	0.7243365317872176	51.44209960161778	0	0.9399999999999999	0	45.03917641085347	-10.00000301603778	-10.00061518533785	54.95197738201612	0.9590929357976352	0	0	0	45.03917641085347	-10.00000301603778	-10.00061518533785	54.95197738201612	0.9590929357976352	0	0	0	0.9980357373739476	0.358624275419233	2.443797133987025	74.77431507936176	3.950169256904618	-14.70092472052178	40.3539360619998	89.68812950030993	0	0	70.70526471679334	-24.53024092924743	14.42436868155687	60.25160113541271	37.55161028737876	0	0
10.87999999999986	0.8020956157425593	0.9525772886845808	51.29915369663129	0	0.9399999999999999	0	45.03915973618923	-10.0000030115528	-10.00061460003789	54.9519911515814	0.9590931761218858	0	0	0	45.03915973618923	-10.0000030115528	-10.00061460003789	54.9519911515814	0.9590931761218858	0	0	0	1.237292010208425	0.4366864466465848	2.679391207254525	74.27034594418942	3.408557322411334	-14.90167239266774	41.17404544119388	91.53751860522047	0	0	71.81369075467644	-24.9549127176013	17.01094553597462	58.97902534554393	35.97193399136777	0	0
10.89999999999986	0.8569068472725019	1.0711039996552	51.27346489327157	0	0.9399999999999999	0	45.03903321779885	-10.0000029881459	-10.00061108289015	54.95212675005751	0.9590955427617546	0	0	0	45.03903321779885	-10.0000029881459	-10.00061108289015	54.95212675005751	0.9590955427617546	0	0	0	1.358768342040087	0.4764144306413203	2.752119503430129	76.5852204925356	2.533249476284572	-16.35973319694579	38.8450060329712	93.25896289266926	0	0	72.79314753480371	-25.37736338052651	18.24695387504711	57.82047417395421	34.41876404913864	0	0
